<mxfile host="app.diagrams.net" modified="2021-08-05T07:27:57.665Z" agent="5.0 (Windows NT 10.0; Win64; x64) AppleWebKit/537.36 (KHTML, like Gecko) Chrome/92.0.4515.131 Safari/537.36" etag="viUghHFow-Zz3qr4v7Tf" version="14.9.3" type="github">
  <diagram id="R5d1Z3BQt2HOlfXYR7gw" name="第 1 页">
    <mxGraphModel dx="868" dy="537" grid="1" gridSize="10" guides="1" tooltips="1" connect="1" arrows="1" fold="1" page="1" pageScale="1" pageWidth="827" pageHeight="1169" math="0" shadow="0">
      <root>
        <mxCell id="0" />
        <mxCell id="1" parent="0" />
        <mxCell id="-DP2T5iKThtB0EdcRXBg-2" value="" style="rounded=0;whiteSpace=wrap;html=1;dashed=1;" parent="1" vertex="1">
          <mxGeometry x="40" y="90" width="712.5" height="860" as="geometry" />
        </mxCell>
        <mxCell id="-DP2T5iKThtB0EdcRXBg-3" value="" style="rounded=0;whiteSpace=wrap;html=1;" parent="1" vertex="1">
          <mxGeometry x="120" y="990" width="630" height="60" as="geometry" />
        </mxCell>
        <mxCell id="-DP2T5iKThtB0EdcRXBg-4" value="" style="rounded=0;whiteSpace=wrap;html=1;" parent="1" vertex="1">
          <mxGeometry x="220" y="1000" width="500" height="40" as="geometry" />
        </mxCell>
        <mxCell id="-DP2T5iKThtB0EdcRXBg-5" value="后端接口" style="text;html=1;align=center;verticalAlign=middle;resizable=0;points=[];autosize=1;strokeColor=none;" parent="1" vertex="1">
          <mxGeometry x="400" y="1010" width="60" height="20" as="geometry" />
        </mxCell>
        <mxCell id="-DP2T5iKThtB0EdcRXBg-6" value="前端" style="text;html=1;strokeColor=none;fillColor=none;align=center;verticalAlign=middle;whiteSpace=wrap;rounded=0;" parent="1" vertex="1">
          <mxGeometry x="130" y="40" width="40" height="20" as="geometry" />
        </mxCell>
        <mxCell id="-DP2T5iKThtB0EdcRXBg-19" style="edgeStyle=orthogonalEdgeStyle;rounded=0;orthogonalLoop=1;jettySize=auto;html=1;exitX=0.75;exitY=1;exitDx=0;exitDy=0;entryX=0.701;entryY=-0.032;entryDx=0;entryDy=0;entryPerimeter=0;" parent="1" source="-DP2T5iKThtB0EdcRXBg-7" target="-DP2T5iKThtB0EdcRXBg-3" edge="1">
          <mxGeometry relative="1" as="geometry" />
        </mxCell>
        <mxCell id="-DP2T5iKThtB0EdcRXBg-7" value="" style="rounded=0;whiteSpace=wrap;html=1;" parent="1" vertex="1">
          <mxGeometry x="220" y="890" width="490" height="40" as="geometry" />
        </mxCell>
        <mxCell id="-DP2T5iKThtB0EdcRXBg-8" value="网络" style="text;html=1;strokeColor=none;fillColor=none;align=center;verticalAlign=middle;whiteSpace=wrap;rounded=0;" parent="1" vertex="1">
          <mxGeometry x="150" y="900" width="40" height="20" as="geometry" />
        </mxCell>
        <mxCell id="-DP2T5iKThtB0EdcRXBg-13" style="edgeStyle=orthogonalEdgeStyle;rounded=0;orthogonalLoop=1;jettySize=auto;html=1;exitX=0.5;exitY=1;exitDx=0;exitDy=0;entryX=0.327;entryY=0.026;entryDx=0;entryDy=0;entryPerimeter=0;" parent="1" source="-DP2T5iKThtB0EdcRXBg-11" target="-DP2T5iKThtB0EdcRXBg-3" edge="1">
          <mxGeometry relative="1" as="geometry" />
        </mxCell>
        <mxCell id="-DP2T5iKThtB0EdcRXBg-11" value="POST请求" style="rounded=0;whiteSpace=wrap;html=1;" parent="1" vertex="1">
          <mxGeometry x="240" y="895" width="100" height="30" as="geometry" />
        </mxCell>
        <mxCell id="-DP2T5iKThtB0EdcRXBg-14" style="edgeStyle=orthogonalEdgeStyle;rounded=0;orthogonalLoop=1;jettySize=auto;html=1;exitX=0.5;exitY=1;exitDx=0;exitDy=0;" parent="1" source="-DP2T5iKThtB0EdcRXBg-12" edge="1">
          <mxGeometry relative="1" as="geometry">
            <mxPoint x="471" y="990" as="targetPoint" />
            <Array as="points">
              <mxPoint x="410" y="957" />
              <mxPoint x="471" y="957" />
            </Array>
          </mxGeometry>
        </mxCell>
        <mxCell id="-DP2T5iKThtB0EdcRXBg-12" value="GET请求" style="rounded=0;whiteSpace=wrap;html=1;" parent="1" vertex="1">
          <mxGeometry x="360" y="895" width="100" height="30" as="geometry" />
        </mxCell>
        <mxCell id="-DP2T5iKThtB0EdcRXBg-18" value="其他请求(PUT,PATCH,DELETE等)" style="rounded=0;whiteSpace=wrap;html=1;" parent="1" vertex="1">
          <mxGeometry x="500" y="895" width="190" height="30" as="geometry" />
        </mxCell>
        <mxCell id="-DP2T5iKThtB0EdcRXBg-20" value="" style="rounded=0;whiteSpace=wrap;html=1;" parent="1" vertex="1">
          <mxGeometry x="220" y="820" width="490" height="40" as="geometry" />
        </mxCell>
        <mxCell id="-DP2T5iKThtB0EdcRXBg-21" value="eggjs" style="text;html=1;strokeColor=none;fillColor=none;align=center;verticalAlign=middle;whiteSpace=wrap;rounded=0;" parent="1" vertex="1">
          <mxGeometry x="150" y="830" width="40" height="20" as="geometry" />
        </mxCell>
        <mxCell id="-DP2T5iKThtB0EdcRXBg-24" value="Axios" style="text;html=1;strokeColor=none;fillColor=none;align=center;verticalAlign=middle;whiteSpace=wrap;rounded=0;" parent="1" vertex="1">
          <mxGeometry x="470" y="867" width="40" height="20" as="geometry" />
        </mxCell>
        <mxCell id="aG-Vg8CzqbAMqB_nOfVe-37" style="edgeStyle=orthogonalEdgeStyle;rounded=0;orthogonalLoop=1;jettySize=auto;html=1;exitX=0.5;exitY=0;exitDx=0;exitDy=0;entryX=0.5;entryY=1;entryDx=0;entryDy=0;" edge="1" parent="1" source="aG-Vg8CzqbAMqB_nOfVe-1" target="aG-Vg8CzqbAMqB_nOfVe-32">
          <mxGeometry relative="1" as="geometry" />
        </mxCell>
        <mxCell id="aG-Vg8CzqbAMqB_nOfVe-1" value="" style="rounded=0;whiteSpace=wrap;html=1;" vertex="1" parent="1">
          <mxGeometry x="220" y="460" width="400" height="150" as="geometry" />
        </mxCell>
        <mxCell id="aG-Vg8CzqbAMqB_nOfVe-4" style="edgeStyle=orthogonalEdgeStyle;rounded=0;orthogonalLoop=1;jettySize=auto;html=1;exitX=0;exitY=0.5;exitDx=0;exitDy=0;entryX=1;entryY=0.5;entryDx=0;entryDy=0;" edge="1" parent="1" source="aG-Vg8CzqbAMqB_nOfVe-2" target="aG-Vg8CzqbAMqB_nOfVe-1">
          <mxGeometry relative="1" as="geometry" />
        </mxCell>
        <mxCell id="aG-Vg8CzqbAMqB_nOfVe-2" value="antd&amp;nbsp;" style="rounded=0;whiteSpace=wrap;html=1;" vertex="1" parent="1">
          <mxGeometry x="640" y="460" width="70" height="150" as="geometry" />
        </mxCell>
        <mxCell id="aG-Vg8CzqbAMqB_nOfVe-5" value="" style="rounded=0;whiteSpace=wrap;html=1;" vertex="1" parent="1">
          <mxGeometry x="230" y="470" width="120" height="130" as="geometry" />
        </mxCell>
        <mxCell id="aG-Vg8CzqbAMqB_nOfVe-6" value="Component" style="text;html=1;strokeColor=none;fillColor=none;align=center;verticalAlign=middle;whiteSpace=wrap;rounded=0;" vertex="1" parent="1">
          <mxGeometry x="240" y="470" width="50" height="20" as="geometry" />
        </mxCell>
        <mxCell id="aG-Vg8CzqbAMqB_nOfVe-8" value="" style="rounded=0;whiteSpace=wrap;html=1;" vertex="1" parent="1">
          <mxGeometry x="370" y="470" width="120" height="130" as="geometry" />
        </mxCell>
        <mxCell id="aG-Vg8CzqbAMqB_nOfVe-10" value="UMI路由" style="text;html=1;align=center;verticalAlign=middle;resizable=0;points=[];autosize=1;strokeColor=none;" vertex="1" parent="1">
          <mxGeometry x="375" y="470" width="60" height="20" as="geometry" />
        </mxCell>
        <mxCell id="aG-Vg8CzqbAMqB_nOfVe-11" value="登录" style="rounded=0;whiteSpace=wrap;html=1;" vertex="1" parent="1">
          <mxGeometry x="405" y="500" width="50" height="20" as="geometry" />
        </mxCell>
        <mxCell id="aG-Vg8CzqbAMqB_nOfVe-12" value="首页" style="rounded=0;whiteSpace=wrap;html=1;" vertex="1" parent="1">
          <mxGeometry x="405" y="525" width="50" height="20" as="geometry" />
        </mxCell>
        <mxCell id="aG-Vg8CzqbAMqB_nOfVe-17" value="..." style="rounded=0;whiteSpace=wrap;html=1;" vertex="1" parent="1">
          <mxGeometry x="405" y="550" width="50" height="20" as="geometry" />
        </mxCell>
        <mxCell id="aG-Vg8CzqbAMqB_nOfVe-19" value="配置" style="rounded=0;whiteSpace=wrap;html=1;" vertex="1" parent="1">
          <mxGeometry x="405" y="575" width="50" height="20" as="geometry" />
        </mxCell>
        <mxCell id="aG-Vg8CzqbAMqB_nOfVe-20" value="公共组件" style="rounded=0;whiteSpace=wrap;html=1;" vertex="1" parent="1">
          <mxGeometry x="250" y="494" width="80" height="20" as="geometry" />
        </mxCell>
        <mxCell id="aG-Vg8CzqbAMqB_nOfVe-21" value="页面组件" style="rounded=0;whiteSpace=wrap;html=1;" vertex="1" parent="1">
          <mxGeometry x="250" y="520" width="80" height="20" as="geometry" />
        </mxCell>
        <mxCell id="aG-Vg8CzqbAMqB_nOfVe-22" value="页面组件" style="rounded=0;whiteSpace=wrap;html=1;" vertex="1" parent="1">
          <mxGeometry x="250" y="570" width="80" height="20" as="geometry" />
        </mxCell>
        <mxCell id="aG-Vg8CzqbAMqB_nOfVe-23" value="..." style="rounded=0;whiteSpace=wrap;html=1;" vertex="1" parent="1">
          <mxGeometry x="250" y="545" width="80" height="20" as="geometry" />
        </mxCell>
        <mxCell id="aG-Vg8CzqbAMqB_nOfVe-24" value="" style="rounded=0;whiteSpace=wrap;html=1;" vertex="1" parent="1">
          <mxGeometry x="500" y="470" width="110" height="130" as="geometry" />
        </mxCell>
        <mxCell id="aG-Vg8CzqbAMqB_nOfVe-25" value="Dva状态管理" style="text;html=1;strokeColor=none;fillColor=none;align=center;verticalAlign=middle;whiteSpace=wrap;rounded=0;" vertex="1" parent="1">
          <mxGeometry x="500" y="474" width="90" height="20" as="geometry" />
        </mxCell>
        <mxCell id="aG-Vg8CzqbAMqB_nOfVe-26" value="state" style="rounded=0;whiteSpace=wrap;html=1;" vertex="1" parent="1">
          <mxGeometry x="520" y="500" width="80" height="20" as="geometry" />
        </mxCell>
        <mxCell id="aG-Vg8CzqbAMqB_nOfVe-27" value="effects" style="rounded=0;whiteSpace=wrap;html=1;" vertex="1" parent="1">
          <mxGeometry x="520" y="525" width="80" height="20" as="geometry" />
        </mxCell>
        <mxCell id="aG-Vg8CzqbAMqB_nOfVe-28" value="reducers" style="rounded=0;whiteSpace=wrap;html=1;" vertex="1" parent="1">
          <mxGeometry x="520" y="550" width="80" height="20" as="geometry" />
        </mxCell>
        <mxCell id="aG-Vg8CzqbAMqB_nOfVe-29" value="subscriptions" style="rounded=0;whiteSpace=wrap;html=1;" vertex="1" parent="1">
          <mxGeometry x="520" y="575" width="80" height="20" as="geometry" />
        </mxCell>
        <mxCell id="aG-Vg8CzqbAMqB_nOfVe-30" value="页面容器" style="text;html=1;strokeColor=none;fillColor=none;align=center;verticalAlign=middle;whiteSpace=wrap;rounded=0;" vertex="1" parent="1">
          <mxGeometry x="150" y="514" width="50" height="20" as="geometry" />
        </mxCell>
        <mxCell id="aG-Vg8CzqbAMqB_nOfVe-31" value="node层处理" style="rounded=0;whiteSpace=wrap;html=1;" vertex="1" parent="1">
          <mxGeometry x="240" y="825" width="440" height="30" as="geometry" />
        </mxCell>
        <mxCell id="aG-Vg8CzqbAMqB_nOfVe-38" style="edgeStyle=orthogonalEdgeStyle;rounded=0;orthogonalLoop=1;jettySize=auto;html=1;exitX=1;exitY=0.5;exitDx=0;exitDy=0;entryX=0;entryY=0.5;entryDx=0;entryDy=0;" edge="1" parent="1" source="aG-Vg8CzqbAMqB_nOfVe-32" target="aG-Vg8CzqbAMqB_nOfVe-33">
          <mxGeometry relative="1" as="geometry" />
        </mxCell>
        <mxCell id="aG-Vg8CzqbAMqB_nOfVe-32" value="app.js" style="rounded=0;whiteSpace=wrap;html=1;" vertex="1" parent="1">
          <mxGeometry x="220" y="370" width="90" height="60" as="geometry" />
        </mxCell>
        <mxCell id="aG-Vg8CzqbAMqB_nOfVe-33" value="" style="rounded=0;whiteSpace=wrap;html=1;" vertex="1" parent="1">
          <mxGeometry x="335" y="370" width="205" height="60" as="geometry" />
        </mxCell>
        <mxCell id="aG-Vg8CzqbAMqB_nOfVe-34" value="egg-bin dev" style="rounded=0;whiteSpace=wrap;html=1;" vertex="1" parent="1">
          <mxGeometry x="350" y="385" width="90" height="30" as="geometry" />
        </mxCell>
        <mxCell id="aG-Vg8CzqbAMqB_nOfVe-44" style="edgeStyle=orthogonalEdgeStyle;rounded=0;orthogonalLoop=1;jettySize=auto;html=1;exitX=1;exitY=0.5;exitDx=0;exitDy=0;entryX=0;entryY=0.5;entryDx=0;entryDy=0;" edge="1" parent="1" source="aG-Vg8CzqbAMqB_nOfVe-35" target="aG-Vg8CzqbAMqB_nOfVe-39">
          <mxGeometry relative="1" as="geometry" />
        </mxCell>
        <mxCell id="aG-Vg8CzqbAMqB_nOfVe-35" value="umi build" style="rounded=0;whiteSpace=wrap;html=1;" vertex="1" parent="1">
          <mxGeometry x="450" y="385" width="80" height="30" as="geometry" />
        </mxCell>
        <mxCell id="aG-Vg8CzqbAMqB_nOfVe-39" value="egg-scripts start" style="rounded=0;whiteSpace=wrap;html=1;" vertex="1" parent="1">
          <mxGeometry x="600" y="370" width="110" height="60" as="geometry" />
        </mxCell>
        <mxCell id="aG-Vg8CzqbAMqB_nOfVe-78" style="edgeStyle=orthogonalEdgeStyle;rounded=0;orthogonalLoop=1;jettySize=auto;html=1;exitX=0.25;exitY=1;exitDx=0;exitDy=0;entryX=0.5;entryY=0;entryDx=0;entryDy=0;" edge="1" parent="1" source="aG-Vg8CzqbAMqB_nOfVe-41" target="aG-Vg8CzqbAMqB_nOfVe-34">
          <mxGeometry relative="1" as="geometry" />
        </mxCell>
        <mxCell id="aG-Vg8CzqbAMqB_nOfVe-79" style="edgeStyle=orthogonalEdgeStyle;rounded=0;orthogonalLoop=1;jettySize=auto;html=1;exitX=0.75;exitY=1;exitDx=0;exitDy=0;entryX=0.5;entryY=0;entryDx=0;entryDy=0;" edge="1" parent="1" source="aG-Vg8CzqbAMqB_nOfVe-41" target="aG-Vg8CzqbAMqB_nOfVe-39">
          <mxGeometry relative="1" as="geometry" />
        </mxCell>
        <mxCell id="aG-Vg8CzqbAMqB_nOfVe-41" value="" style="rounded=0;whiteSpace=wrap;html=1;" vertex="1" parent="1">
          <mxGeometry x="220" y="280" width="490" height="60" as="geometry" />
        </mxCell>
        <mxCell id="aG-Vg8CzqbAMqB_nOfVe-45" value="开发&amp;amp;编译" style="text;html=1;strokeColor=none;fillColor=none;align=center;verticalAlign=middle;whiteSpace=wrap;rounded=0;" vertex="1" parent="1">
          <mxGeometry x="140" y="390" width="70" height="20" as="geometry" />
        </mxCell>
        <mxCell id="aG-Vg8CzqbAMqB_nOfVe-47" value="各页面" style="text;html=1;strokeColor=none;fillColor=none;align=center;verticalAlign=middle;whiteSpace=wrap;rounded=0;" vertex="1" parent="1">
          <mxGeometry x="140" y="300" width="70" height="20" as="geometry" />
        </mxCell>
        <mxCell id="aG-Vg8CzqbAMqB_nOfVe-71" style="edgeStyle=orthogonalEdgeStyle;rounded=0;orthogonalLoop=1;jettySize=auto;html=1;exitX=0.5;exitY=1;exitDx=0;exitDy=0;entryX=0.5;entryY=0;entryDx=0;entryDy=0;" edge="1" parent="1" source="aG-Vg8CzqbAMqB_nOfVe-48" target="aG-Vg8CzqbAMqB_nOfVe-59">
          <mxGeometry relative="1" as="geometry" />
        </mxCell>
        <mxCell id="aG-Vg8CzqbAMqB_nOfVe-72" style="edgeStyle=orthogonalEdgeStyle;rounded=0;orthogonalLoop=1;jettySize=auto;html=1;exitX=0.5;exitY=1;exitDx=0;exitDy=0;" edge="1" parent="1" source="aG-Vg8CzqbAMqB_nOfVe-48" target="aG-Vg8CzqbAMqB_nOfVe-66">
          <mxGeometry relative="1" as="geometry" />
        </mxCell>
        <mxCell id="aG-Vg8CzqbAMqB_nOfVe-48" value="服务端渲染" style="rounded=0;whiteSpace=wrap;html=1;" vertex="1" parent="1">
          <mxGeometry x="220" y="180" width="230" height="60" as="geometry" />
        </mxCell>
        <mxCell id="aG-Vg8CzqbAMqB_nOfVe-75" style="edgeStyle=orthogonalEdgeStyle;rounded=0;orthogonalLoop=1;jettySize=auto;html=1;exitX=0.5;exitY=1;exitDx=0;exitDy=0;" edge="1" parent="1" source="aG-Vg8CzqbAMqB_nOfVe-50" target="aG-Vg8CzqbAMqB_nOfVe-60">
          <mxGeometry relative="1" as="geometry" />
        </mxCell>
        <mxCell id="aG-Vg8CzqbAMqB_nOfVe-76" style="edgeStyle=orthogonalEdgeStyle;rounded=0;orthogonalLoop=1;jettySize=auto;html=1;exitX=0.5;exitY=1;exitDx=0;exitDy=0;" edge="1" parent="1" source="aG-Vg8CzqbAMqB_nOfVe-50" target="aG-Vg8CzqbAMqB_nOfVe-62">
          <mxGeometry relative="1" as="geometry" />
        </mxCell>
        <mxCell id="aG-Vg8CzqbAMqB_nOfVe-77" style="edgeStyle=orthogonalEdgeStyle;rounded=0;orthogonalLoop=1;jettySize=auto;html=1;exitX=0.5;exitY=1;exitDx=0;exitDy=0;entryX=0.5;entryY=0;entryDx=0;entryDy=0;" edge="1" parent="1" source="aG-Vg8CzqbAMqB_nOfVe-50" target="aG-Vg8CzqbAMqB_nOfVe-61">
          <mxGeometry relative="1" as="geometry" />
        </mxCell>
        <mxCell id="aG-Vg8CzqbAMqB_nOfVe-50" value="客户端渲染" style="rounded=0;whiteSpace=wrap;html=1;" vertex="1" parent="1">
          <mxGeometry x="490" y="180" width="220" height="60" as="geometry" />
        </mxCell>
        <mxCell id="aG-Vg8CzqbAMqB_nOfVe-73" style="edgeStyle=orthogonalEdgeStyle;rounded=0;orthogonalLoop=1;jettySize=auto;html=1;exitX=0.25;exitY=1;exitDx=0;exitDy=0;entryX=0.5;entryY=0;entryDx=0;entryDy=0;" edge="1" parent="1" source="aG-Vg8CzqbAMqB_nOfVe-51" target="aG-Vg8CzqbAMqB_nOfVe-48">
          <mxGeometry relative="1" as="geometry" />
        </mxCell>
        <mxCell id="aG-Vg8CzqbAMqB_nOfVe-74" style="edgeStyle=orthogonalEdgeStyle;rounded=0;orthogonalLoop=1;jettySize=auto;html=1;exitX=0.75;exitY=1;exitDx=0;exitDy=0;entryX=0.45;entryY=-0.05;entryDx=0;entryDy=0;entryPerimeter=0;" edge="1" parent="1" source="aG-Vg8CzqbAMqB_nOfVe-51" target="aG-Vg8CzqbAMqB_nOfVe-50">
          <mxGeometry relative="1" as="geometry" />
        </mxCell>
        <mxCell id="aG-Vg8CzqbAMqB_nOfVe-51" value="浏览器" style="rounded=0;whiteSpace=wrap;html=1;" vertex="1" parent="1">
          <mxGeometry x="222.5" y="100" width="487.5" height="60" as="geometry" />
        </mxCell>
        <mxCell id="aG-Vg8CzqbAMqB_nOfVe-54" value="" style="rounded=0;whiteSpace=wrap;html=1;" vertex="1" parent="1">
          <mxGeometry x="220" y="720" width="490" height="80" as="geometry" />
        </mxCell>
        <mxCell id="aG-Vg8CzqbAMqB_nOfVe-55" value="配置信息" style="rounded=0;whiteSpace=wrap;html=1;" vertex="1" parent="1">
          <mxGeometry x="490" y="735" width="100" height="45" as="geometry" />
        </mxCell>
        <mxCell id="aG-Vg8CzqbAMqB_nOfVe-56" value="第三方库" style="rounded=0;whiteSpace=wrap;html=1;" vertex="1" parent="1">
          <mxGeometry x="230" y="735" width="110" height="45" as="geometry" />
        </mxCell>
        <mxCell id="aG-Vg8CzqbAMqB_nOfVe-57" value="工具类" style="rounded=0;whiteSpace=wrap;html=1;" vertex="1" parent="1">
          <mxGeometry x="360" y="735" width="110" height="45" as="geometry" />
        </mxCell>
        <mxCell id="aG-Vg8CzqbAMqB_nOfVe-58" value="插件" style="rounded=0;whiteSpace=wrap;html=1;" vertex="1" parent="1">
          <mxGeometry x="610" y="735" width="90" height="45" as="geometry" />
        </mxCell>
        <mxCell id="aG-Vg8CzqbAMqB_nOfVe-59" value="首页" style="rounded=0;whiteSpace=wrap;html=1;" vertex="1" parent="1">
          <mxGeometry x="230" y="290" width="80" height="30" as="geometry" />
        </mxCell>
        <mxCell id="aG-Vg8CzqbAMqB_nOfVe-60" value="登录" style="rounded=0;whiteSpace=wrap;html=1;" vertex="1" parent="1">
          <mxGeometry x="437.5" y="290" width="65" height="30" as="geometry" />
        </mxCell>
        <mxCell id="aG-Vg8CzqbAMqB_nOfVe-61" value="供方用户中心" style="rounded=0;whiteSpace=wrap;html=1;" vertex="1" parent="1">
          <mxGeometry x="610" y="290" width="95" height="30" as="geometry" />
        </mxCell>
        <mxCell id="aG-Vg8CzqbAMqB_nOfVe-62" value="需方用户中心" style="rounded=0;whiteSpace=wrap;html=1;" vertex="1" parent="1">
          <mxGeometry x="510" y="290" width="90" height="30" as="geometry" />
        </mxCell>
        <mxCell id="aG-Vg8CzqbAMqB_nOfVe-66" value="数据展示&amp;amp;交易" style="rounded=0;whiteSpace=wrap;html=1;" vertex="1" parent="1">
          <mxGeometry x="324" y="290" width="90" height="30" as="geometry" />
        </mxCell>
        <mxCell id="aG-Vg8CzqbAMqB_nOfVe-80" value="开发环境启动" style="text;html=1;strokeColor=none;fillColor=none;align=center;verticalAlign=middle;whiteSpace=wrap;rounded=0;" vertex="1" parent="1">
          <mxGeometry x="360" y="340" width="90" height="20" as="geometry" />
        </mxCell>
        <mxCell id="aG-Vg8CzqbAMqB_nOfVe-81" value="生产环境启动" style="text;html=1;strokeColor=none;fillColor=none;align=center;verticalAlign=middle;whiteSpace=wrap;rounded=0;" vertex="1" parent="1">
          <mxGeometry x="610" y="340" width="90" height="20" as="geometry" />
        </mxCell>
      </root>
    </mxGraphModel>
  </diagram>
</mxfile>
